# AST/ASF file generated using VICON BodyLanguage
# -----------------------------------------------
:version 1.10
:name VICON
:units
  mass 1.0
  length 0.45
  angle deg
:documentation
   .ast/.asf automatically generated from VICON data using
   VICON BodyBuilder and BodyLanguage model FoxedUp or BRILLIANT.MOD
:root
   order TX TY TZ RX RY RZ
   axis XYZ
   position 0 0 0  
   orientation 0 0 0 
:bonedata
  begin
     id 1 
     name lhipjoint
     direction 0.646657 -0.683706 0.338203 
     length 2.4948 
     axis 0 0 0  XYZ
  end
  begin
     id 2 
     name lfemur
     direction 0.34202 -0.939693 0  
     length 6.79491  
     axis 0 0 20  XYZ
    dof rx ry rz
    limits (-160.0 20.0)
           (-70.0 70.0)
           (-60.0 70.0)
  end
  begin
     id 3 
     name ltibia
     direction 0.34202 -0.939693 0   
     length 7.56807   
     axis 0 0 20   XYZ
    dof rx
    limits (-10.0 170.0)
  end
  begin
     id 4 
     name lfoot
     direction 0.0679796 -0.186772 0.980048   
     length 2.53018   
     axis -90 7.62852e-016 20   XYZ
    dof rx rz
    limits (-45.0 90.0)
           (-70.0 20.0)
  end
  begin
     id 5 
     name ltoes
     direction 1.53625e-011 -4.21881e-011 1   
     length 1.26912   
     axis -90 7.62852e-016 20   XYZ
    dof rx
    limits (-90.0 20.0)
  end
  begin
     id 6 
     name rhipjoint
     direction -0.618868 -0.704065 0.348274   
     length 2.42265  
     axis 0 0 0  XYZ 
  end
  begin
     id 7 
     name rfemur
     direction -0.34202 -0.939693 0   
     length 6.73814   
     axis 0 0 -20   XYZ
    dof rx ry rz
    limits (-160.0 20.0)
           (-70.0 70.0)
           (-70.0 60.0)
  end
  begin
     id 8 
     name rtibia
     direction -0.34202 -0.939693 0   
     length 7.66799   
     axis 0 0 -20   XYZ
    dof rx
    limits (-10.0 170.0)
 end
 begin
     id 9 
     name rfoot
     direction -0.0727352 -0.199838 0.977125   
     length 2.57224  
     axis -90 -7.62852e-016 -20   XYZ
    dof rx rz
    limits (-45.0 90.0)
           (-20.0 70.0)
  end
  begin
     id 10 
     name rtoes
     direction -1.53501e-011 -4.21858e-011 1   
     length 1.28858   
     axis -90 -7.62852e-016 -20   XYZ
    dof rx
    limits (-90.0 20.0)
  end
  begin
     id 11 
     name lowerback
     direction -0.0172471 0.995767 -0.0902851   
     length 2.20206   
     axis 0 0 0   XYZ
    dof rx ry rz
    limits (-20.0 45.0)
           (-30.0 30.0)
           (-30.0 30.0)
  end
  begin
     id 12 
     name upperback
     direction -0.000110737 0.999714 0.0239043   
     length 2.19523   
     axis 0 0 0   XYZ
    dof rx ry rz
    limits (-20.0 45.0)
           (-30.0 30.0)
           (-30.0 30.0)
  end
  begin
     id 13 
     name thorax
     direction 0.00704869 0.997783 0.0661741   
     length 2.21977   
     axis 0 0 0   XYZ
    dof rx ry rz
    limits (-20.0 45.0)
           (-30.0 30.0)
           (-30.0 30.0)
  end
  begin
     id 14 
     name lowerneck
     direction -0.00407501 0.995527 0.0943846   
     length 1.83142   
     axis 0 0 0   XYZ
    dof rx ry rz
    limits (-20.0 45.0)
           (-30.0 30.0)
           (-30.0 30.0)
  end
  begin
     id 15 
     name upperneck
     direction 0.0640586 0.986486 -0.150807   
     length 1.84616   
     axis 0 0 0   XYZ
    dof rx ry rz
    limits (-20.0 45.0)
           (-30.0 30.0)
           (-30.0 30.0)
  end
  begin
     id 16
     name head
     direction 0.0188017 0.99791 -0.0618239  
     length 1.85932  
     axis 0 0 0   XYZ
    dof rx ry rz
    limits (-20.0 45.0)
           (-30.0 30.0)
           (-30.0 30.0)
  end
  begin
     id 17 
     name lclavicle
     direction 0.976074 0.206905 0.066852  
     length 3.81043  
     axis 0 0 0   XYZ
    dof ry rz
    limits (-20.0 10.0)
           (0.0 20.0)
  end
  begin
     id 18 
     name lhumerus
     direction 1 -4.48971e-011 1.86916e-027   
     length 5.37587   
     axis 180 -30 -90   XYZ
    dof rx ry rz
    limits (-60.0 90.0)
           (-90.0 90.0)
           (-90.0 90.0)
  end
  begin
     id 19
     name lradius
     direction 1 -4.48968e-011 1.69187e-027   
     length 3.35977   
     axis 180 -30 -90   XYZ
    dof rx
    limits (-10.0 170.0)
  end
  begin
     id 20
     name lwrist
     direction 1 -4.48968e-011 5.8978e-027   
     length 1.67988   
     axis -3.27506e-015 90 90   XYZ
    dof ry
    limits (-180.0 0.0)
 end
  begin
     id 21 
     name lhand
     direction 1 -4.49028e-011 1.18071e-026   
     length 0.561859   
     axis -7.52654e-015 90 90   XYZ
    dof rx rz
    limits (-90.0 90.0)
           (-45.0 45.0)
  end
  begin
     id 22 
     name lfingers
     direction 1 -4.48927e-011 2.35758e-026   
     length 0.452985   
     axis -1.50534e-014 90 90   XYZ
    dof rx
    limits (0.0 90.0)
  end
  begin
     id 23
     name lthumb
     direction 0.707107 -6.34898e-011 0.707107   
     length 0.650399   
     axis -90 45 5.69224e-014   XYZ
    dof rx rz
    limits (-45.0 45.0)
           (-45.0 45.0)
  end
  begin
     id 24 
     name rclavicle
     direction -0.988403 0.151789 0.00439714   
     length 3.6942  
     axis 0 0 0   XYZ 
    dof ry rz
    limits (-10.0 20.0)
           (-20.0 0.0)
  end
  begin
     id 25 
     name rhumerus
     direction -1 -4.48978e-011 1.62495e-027  
     length 5.22819   
     axis 180 30 90   XYZ
    dof rx ry rz
    limits (-90.0 60.0)
           (-90.0 90.0)
           (-90.0 90.0)
  end
  begin
     id 26 
     name rradius
     direction -1 -4.48961e-011 3.47796e-027   
     length 3.40764   
     axis 180 30 90   XYZ
    dof rx
    limits (-10.0 170.0)
  end
  begin
     id 27 
     name rwrist
     direction -1 -4.48949e-011 5.89602e-027   
     length 1.70382   
     axis -3.27506e-015 -90 -90   XYZ
    dof ry
    limits (-180.0 0.0)
  end
  begin
     id 28
     name rhand
     direction -1 -4.48977e-011 1.17973e-026   
     length 0.583255   
     axis -7.52654e-015 -90 -90   XYZ
    dof rx rz
    limits (-90.0 90.0)
           (-45.0 45.0)
  end
  begin
     id 29
     name rfingers
     direction -1 -4.49099e-011 2.36408e-026   
     length 0.470235   
     axis -1.50534e-014 -90 -90   XYZ
    dof rx
    limits (0.0 90.0)
  end
  begin
     id 30
     name rthumb
     direction -0.707107 -6.35011e-011 0.707107   
     length 0.675167   
     axis -90 -45 -5.69224e-014   XYZ
    dof rx rz
    limits (-45.0 45.0)
           (-45.0 45.0)
  end
:hierarchy
  begin
    root lhipjoint rhipjoint lowerback
    lhipjoint lfemur
    lfemur ltibia
    ltibia lfoot
    lfoot ltoes
    rhipjoint rfemur
    rfemur rtibia
    rtibia rfoot
    rfoot rtoes
    lowerback upperback
    upperback thorax
    thorax lowerneck lclavicle rclavicle
    lowerneck upperneck
    upperneck head
    lclavicle lhumerus
    lhumerus lradius
    lradius lwrist
    lwrist lhand lthumb
    lhand lfingers
    rclavicle rhumerus
    rhumerus rradius
    rradius rwrist
    rwrist rhand rthumb
    rhand rfingers
  end

#!OML:ASF G:\JayActor3\Patient Classification 1\Patient 1\Session 2\male.ASF
:FULLY-SPECIFIED
:DEGREES
1451
root -31.4053 16.8867 -4.07648 1589.11 87.4038 -2016.48
lowerback -1.88125 -1.02595 -2.54252
upperback 2.2142 -1.28632 0.564675
thorax 3.40296 -0.70677 1.94418
lowerneck -10.2837 -2.47711 -1.9709
upperneck -8.09298 -2.42783 8.55572
head -0.666873 -1.00376 3.0285
rclavicle 4.12478e-015 1.98785e-016
rhumerus -36.6603 -11.3274 -79.8647
rradius 23.7264
rwrist -0.910151
rhand -21.4175 5.66532
rfingers 7.12502
rthumb 4.9712 -24.2564
lclavicle 4.12478e-015 1.98785e-016
lhumerus -28.2577 7.77689 89.7613
lradius 19.5521
lwrist 1.54798
lhand -17.8365 16.1033
lfingers 7.12502
lthumb 8.42812 45.9151
rfemur -32.2015 3.99049 19.4779
rtibia 31.3073
rfoot -10.81 -10.6524
rtoes 17.6762
lfemur 19.55 6.9534 -24.0018
ltibia 6.36111e-015
lfoot -2.05559 0.200107
ltoes -17.2538
1452
root -31.2897 16.9038 -4.06517 1589.66 87.3363 -2015.87
lowerback -2.01593 -1.01486 -2.54218
upperback 2.17791 -1.27027 0.599487
thorax 3.44149 -0.699663 1.97872
lowerneck -10.2361 -2.48044 -1.98503
upperneck -7.9525 -2.44503 8.59279
head -0.627636 -1.01247 3.04227
rclavicle 8.74653e-015 -1.98785e-015
rhumerus -36.6139 -11.4546 -79.7743
rradius 23.6135
rwrist -0.802282
rhand -21.3112 5.61506
rfingers 7.12502
rthumb 5.07392 -24.3042
lclavicle 8.74653e-015 -1.98785e-015
lhumerus -28.7519 8.08907 89.3414
lradius 19.5034
lwrist 1.56194
lhand -17.7524 15.9686
lfingers 7.12502
lthumb 8.50924 45.7772
rfemur -31.7375 4.11114 19.5203
rtibia 31.4112
rfoot -10.9583 -10.6384
rtoes 18.1848
lfemur 19.933 6.99092 -23.8254
ltibia 9.54166e-015
lfoot -1.15823 0.226541
ltoes -17.4309
1453
root -31.1714 16.9215 -4.05277 1590.45 87.26 -2015.02
lowerback -2.17304 -1.01219 -2.5502
upperback 2.14035 -1.26473 0.636817
thorax 3.49221 -0.698189 2.01969
lowerneck -10.1917 -2.4822 -1.99786
upperneck -7.77559 -2.4641 8.63041
head -0.57599 -1.02181 3.05557
rclavicle -2.21645e-014 1.21259e-014
rhumerus -36.5773 -11.5293 -79.7147
rradius 23.5501
rwrist -0.741878
rhand -21.1997 5.57474
rfingers 7.12502
rthumb 5.18149 -24.3419
lclavicle -2.21645e-014 1.21259e-014
lhumerus -29.2543 8.33908 88.9297
lradius 19.4706
lwrist 1.61956
lhand -17.667 15.876
lfingers 7.12502
lthumb 8.5917 45.6811
rfemur -31.2278 4.26837 19.5674
rtibia 31.4781
rfoot -11.1849 -10.669
rtoes 18.6401
lfemur 20.319 7.01213 -23.634
ltibia -9.85972e-014
lfoot -0.207197 0.289025
ltoes -17.5046
1454
root -31.0503 16.939 -4.03953 1591.38 87.178 -2014.01
lowerback -2.34834 -1.01579 -2.56276
upperback 2.09906 -1.26701 0.674801
thorax 3.54994 -0.700804 2.06322
lowerneck -10.1377 -2.48515 -2.01272
upperneck -7.57796 -2.48699 8.67079
head -0.51898 -1.03312 3.07003
rclavicle 2.10215e-014 1.78906e-015
rhumerus -36.5504 -11.5549 -79.6853
rradius 23.5307
rwrist -0.730149
rhand -21.0959 5.52627
rfingers 7.12502
rthumb 5.28175 -24.3879
lclavicle 2.10215e-014 1.78906e-015
lhumerus -29.7698 8.52667 88.526
lradius 19.4538
lwrist 1.70554
lhand -17.5835 15.813
lfingers 7.12502
lthumb 8.67232 45.6148
rfemur -30.6762 4.41872 19.631
rtibia 31.5096
rfoot -11.4592 -10.7099
rtoes 18.9998
lfemur 20.7112 7.02195 -23.4303
ltibia 3.18055e-014
lfoot 0.790472 0.391233
ltoes -17.5074
1455
root -30.9269 16.9565 -4.02553 1592.66 87.0881 -2012.66
lowerback -2.54499 -1.02787 -2.5701
upperback 2.05422 -1.28046 0.716164
thorax 3.61665 -0.708985 2.10635
lowerneck -10.0753 -2.48826 -2.02977
upperneck -7.36742 -2.51143 8.71316
head -0.459091 -1.04528 3.08555
rclavicle 2.06239e-014 1.03368e-014
rhumerus -36.5359 -11.5223 -79.6889
rradius 23.5697
rwrist -0.769832
rhand -20.9968 5.47953
rfingers 7.12502
rthumb 5.3774 -24.4322
lclavicle 2.06239e-014 1.03368e-014
lhumerus -30.2872 8.64316 88.1398
lradius 19.4551
lwrist 1.8225
lhand -17.5192 15.8124
lfingers 7.12502
lthumb 8.73434 45.6117
rfemur -30.0975 4.52641 19.7263
rtibia 31.5087
rfoot -11.7519 -10.7519
rtoes 19.2462
lfemur 21.0946 7.01376 -23.2073
ltibia 3.18055e-015
lfoot 1.83661 0.543048
ltoes -17.4139
1456
root -30.802 16.9738 -4.01075 1594.26 86.9848 -2010.99
lowerback -2.75708 -1.04974 -2.57555
upperback 2.0008 -1.30697 0.762012
thorax 3.68408 -0.723607 2.15204
lowerneck -9.9978 -2.48988 -2.05268
upperneck -7.14419 -2.53486 8.76052
head -0.397545 -1.05708 3.10402
rclavicle -1.74434e-014 -7.95139e-015
rhumerus -36.5327 -11.4517 -79.7133
rradius 23.6512
rwrist -0.839546
rhand -20.9054 5.44927
rfingers 7.12502
rthumb 5.46571 -24.4602
lclavicle -1.74434e-014 -7.95139e-015
lhumerus -30.8091 8.69914 87.769
lradius 19.47
lwrist 1.95351
lhand -17.4627 15.8557
lfingers 7.12502
lthumb 8.78887 45.6527
rfemur -29.5031 4.56928 19.8543
rtibia 31.4819
rfoot -12.041 -10.7866
rtoes 19.3866
lfemur 21.4646 6.98332 -22.9684
ltibia -1.90833e-014
lfoot 2.92557 0.747914
ltoes -17.2517
1457
root -30.676 16.9904 -3.99524 1596.09 86.8631 -2009.1
lowerback -2.9753 -1.0801 -2.58036
upperback 1.93133 -1.345 0.809993
thorax 3.73909 -0.743659 2.19878
lowerneck -9.88882 -2.494 -2.07917
upperneck -6.91698 -2.56243 8.80977
head -0.33971 -1.07178 3.12397
rclavicle -1.77912e-014 1.45113e-014
rhumerus -36.5583 -11.3415 -79.7581
rradius 23.7845
rwrist -0.952811
rhand -20.8301 5.42051
rfingers 7.12502
rthumb 5.53841 -24.4871
lclavicle -1.77912e-014 1.45113e-014
lhumerus -31.3419 8.69327 87.4128
lradius 19.4988
lwrist 2.09146
lhand -17.4214 15.962
lfingers 7.12502
lthumb 8.82868 45.7574
rfemur -28.9013 4.53071 20.0114
rtibia 31.4352
rfoot -12.3078 -10.8039
rtoes 19.4534
lfemur 21.8177 6.92917 -22.7196
ltibia -3.18055e-014
lfoot 4.05636 1.0062
ltoes -17.06
1458
root -30.5494 17.0062 -3.97916 1598.06 86.7231 -2007.07
lowerback -3.19783 -1.11676 -2.58495
upperback 1.84733 -1.39151 0.858917
thorax 3.78205 -0.767606 2.24571
lowerneck -9.76156 -2.49812 -2.10742
upperneck -6.67216 -2.59201 8.86075
head -0.279146 -1.08777 3.14487
rclavicle 1.1778e-014 -1.98785e-015
rhumerus -36.6049 -11.2138 -79.8133
rradius 23.9548
rwrist -1.09649
rhand -20.7739 5.40691
rfingers 7.12502
rthumb 5.59262 -24.4993
lclavicle 1.1778e-014 -1.98785e-015
lhumerus -31.8769 8.6505 87.061
lradius 19.5315
lwrist 2.20127
lhand -17.3649 16.0421
lfingers 7.12502
lthumb 8.88325 45.8351
rfemur -28.3 4.425 20.1897
rtibia 31.3762
rfoot -12.5592 -10.8012
rtoes 19.5088
lfemur 22.1503 6.8537 -22.4634
ltibia 2.54444e-014
lfoot 5.22664 1.32262
ltoes -16.8059
1459
root -30.4224 17.0207 -3.96271 1600.09 86.5633 -2004.99
lowerback -3.41738 -1.15926 -2.58687
upperback 1.74965 -1.44608 0.907636
thorax 3.80962 -0.795084 2.29037
lowerneck -9.6252 -2.504 -2.1382
upperneck -6.4025 -2.62643 8.91365
head -0.211795 -1.10607 3.16673
rclavicle -3.03147e-015 6.36111e-015
rhumerus -36.6712 -11.0795 -79.8741
rradius 24.1549
rwrist -1.26431
rhand -20.7338 5.41915
rfingers 7.12502
rthumb 5.63133 -24.486
lclavicle -3.03147e-015 6.36111e-015
lhumerus -32.4089 8.58897 86.7078
lradius 19.562
lwrist 2.27239
lhand -17.2988 16.0948
lfingers 7.12502
lthumb 8.94701 45.8851
rfemur -27.7004 4.26528 20.3823
rtibia 31.3106
rfoot -12.8013 -10.7796
rtoes 19.5626
lfemur 22.4678 6.75764 -22.2025
ltibia -1.59028e-014
lfoot 6.43146 1.70022
ltoes -16.4705
1460
root -30.2954 17.0336 -3.94652 1602.03 86.3939 -2003
lowerback -3.63186 -1.2036 -2.58399
upperback 1.64926 -1.50334 0.955198
thorax 3.83158 -0.823568 2.33084
lowerneck -9.49388 -2.51118 -2.17905
upperneck -6.11542 -2.66312 8.97425
head -0.137551 -1.12477 3.19305
rclavicle 3.23025e-015 1.94809e-014
rhumerus -36.7418 -10.9398 -79.9411
rradius 24.3827
rwrist -1.45985
rhand -20.7115 5.45123
rfingers 7.12502
rthumb 5.6529 -24.4534
lclavicle 3.23025e-015 1.94809e-014
lhumerus -32.9218 8.54153 86.3438
lradius 19.5781
lwrist 2.27438
lhand -17.22 16.0601
lfingers 7.12502
lthumb 9.0231 45.8471
rfemur -27.0972 4.05777 20.5829
rtibia 31.2434
rfoot -13.0385 -10.7213
rtoes 19.6231
lfemur 22.7809 6.65462 -21.9418
ltibia 6.04305e-014
lfoot 7.66621 2.14395
ltoes -16.016
1461
root -30.1688 17.0445 -3.93094 1603.94 86.2228 -2001.02
lowerback -3.83963 -1.24699 -2.56414
upperback 1.55254 -1.56021 1.00301
thorax 3.85308 -0.851366 2.36193
lowerneck -9.38113 -2.52064 -2.22565
upperneck -5.80582 -2.70426 9.03648
head -0.0524962 -1.14461 3.22074
rclavicle 1.03865e-014 -6.75868e-015
rhumerus -36.8109 -10.7986 -80.012
rradius 24.6338
rwrist -1.67967
rhand -20.6982 5.52645
rfingers 7.12502
rthumb 5.66578 -24.3778
lclavicle 1.03865e-014 -6.75868e-015
lhumerus -33.4085 8.49379 85.9831
lradius 19.5967
lwrist 2.24029
lhand -17.1485 16.0016
lfingers 7.12502
lthumb 9.09209 45.7857
rfemur -26.489 3.81634 20.796
rtibia 31.1769
rfoot -13.2746 -10.6284
rtoes 19.6845
lfemur 23.0933 6.55069 -21.6739
ltibia 3.18055e-015
lfoot 8.93443 2.65539
ltoes -15.4442
1462
root -30.043 17.0533 -3.91642 1605.79 86.0527 -1999.11
lowerback -4.03715 -1.28755 -2.52515
upperback 1.46425 -1.61444 1.05088
thorax 3.87683 -0.87741 2.38243
lowerneck -9.28541 -2.53562 -2.27363
upperneck -5.49362 -2.75286 9.09081
head 0.0366541 -1.16752 3.24576
rclavicle -8.94531e-015 6.75868e-015
rhumerus -36.8689 -10.6389 -80.0973
rradius 24.9143
rwrist -1.93283
rhand -20.7119 5.57389
rfingers 7.12502
rthumb 5.65256 -24.3307
lclavicle -8.94531e-015 6.75868e-015
lhumerus -33.8635 8.45951 85.6245
lradius 19.614
lwrist 2.1625
lhand -17.0914 15.8931
lfingers 7.12502
lthumb 9.14717 45.6747
rfemur -25.8738 3.54099 21.0164
rtibia 31.1122
rfoot -13.5124 -10.4929
rtoes 19.7372
lfemur 23.4113 6.45081 -21.4035
ltibia -3.18055e-015
lfoot 10.2396 3.2374
ltoes -14.7507
1463
root -29.9187 17.0601 -3.90303 1607.7 85.8799 -1997.11
lowerback -4.21648 -1.32472 -2.4557
upperback 1.38467 -1.66623 1.09881
thorax 3.89822 -0.90147 2.38615
lowerneck -9.20763 -2.55872 -2.32474
upperneck -5.18742 -2.81114 9.14275
head 0.127616 -1.1946 3.27029
rclavicle -1.49834e-014 -1.03368e-014
rhumerus -36.9178 -10.4592 -80.201
rradius 25.2287
rwrist -2.22475
rhand -20.7465 5.59508
rfingers 7.12502
rthumb 5.61907 -24.3104
lclavicle -1.49834e-014 -1.03368e-014
lhumerus -34.2826 8.41746 85.2789
lradius 19.6424
lwrist 2.07546
lhand -17.0593 15.7863
lfingers 7.12502
lthumb 9.17813 45.5666
rfemur -25.2533 3.22166 21.2518
rtibia 31.0469
rfoot -13.7453 -10.3118
rtoes 19.7567
lfemur 23.729 6.34983 -21.1243
ltibia 2.8625e-014
lfoot 11.5984 3.88828
ltoes -13.9987
1464
root -29.7961 17.0649 -3.89078 1609.71 85.7016 -1995.01
lowerback -4.37296 -1.35768 -2.35158
upperback 1.31124 -1.71494 1.14688
thorax 3.91172 -0.923068 2.37101
lowerneck -9.14393 -2.58858 -2.37603
upperneck -4.88739 -2.8776 9.19066
head 0.219534 -1.22528 3.29325
rclavicle 1.76421e-015 1.98785e-015
rhumerus -36.9567 -10.2705 -80.3183
rradius 25.5647
rwrist -2.53946
rhand -20.8028 5.58284
rfingers 7.12502
rthumb 5.56479 -24.3241
lclavicle 1.76421e-015 1.98785e-015
lhumerus -34.6675 8.35704 84.953
lradius 19.6871
lwrist 2.0031
lhand -17.0537 15.7085
lfingers 7.12502
lthumb 9.18355 45.4886
rfemur -24.6306 2.84877 21.5052
rtibia 30.9795
rfoot -13.9686 -10.0811
rtoes 19.7347
lfemur 22.3847 6.31367 -20.8193
ltibia 3.0523
lfoot 11.7442 4.03025
ltoes -13.2119
